# AST/ASF file generated using VICON BodyLanguage
# -----------------------------------------------
:version 1.10
:name VICON
:units
  mass 1.0
  length 0.45
  angle deg
:documentation
   .ast/.asf automatically generated from VICON data using
   VICON BodyBuilder and BodyLanguage model FoxedUp or BRILLIANT.MOD
:root
   order TX TY TZ RX RY RZ
   axis XYZ
   position 0 0 0  
   orientation 0 0 0 
:bonedata
  begin
     id 1 
     name lhipjoint
     direction 0.537252 -0.787203 0.302774 
     length 2.29576 
     axis 0 0 0  XYZ
  end
  begin
     id 2 
     name lfemur
     direction 0.34202 -0.939693 0  
     length 7.31114  
     axis 0 0 20  XYZ
    dof rx ry rz
    limits (-160.0 20.0)
           (-70.0 70.0)
           (-60.0 70.0)
  end
  begin
     id 3 
     name ltibia
     direction 0.34202 -0.939693 0   
     length 8.36008   
     axis 0 0 20   XYZ
    dof rx
    limits (-10.0 170.0)
  end
  begin
     id 4 
     name lfoot
     direction 0.0969116 -0.266263 0.959016   
     length 2.16704   
     axis -90 7.62852e-016 20   XYZ
    dof rx rz
    limits (-45.0 90.0)
           (-70.0 20.0)
  end
  begin
     id 5 
     name ltoes
     direction 1.53563e-011 -4.21779e-011 1   
     length 1.08338   
     axis -90 7.62852e-016 20   XYZ
    dof rx
    limits (-90.0 20.0)
  end
  begin
     id 6 
     name rhipjoint
     direction -0.588228 -0.754791 0.290308   
     length 2.39434  
     axis 0 0 0  XYZ 
  end
  begin
     id 7 
     name rfemur
     direction -0.34202 -0.939693 0   
     length 7.45207   
     axis 0 0 -20   XYZ
    dof rx ry rz
    limits (-160.0 20.0)
           (-70.0 70.0)
           (-70.0 60.0)
  end
  begin
     id 8 
     name rtibia
     direction -0.34202 -0.939693 0   
     length 8.03565   
     axis 0 0 -20   XYZ
    dof rx
    limits (-10.0 170.0)
 end
 begin
     id 9 
     name rfoot
     direction -0.107009 -0.294004 0.949795   
     length 2.11509  
     axis -90 -7.62852e-016 -20   XYZ
    dof rx rz
    limits (-45.0 90.0)
           (-20.0 70.0)
  end
  begin
     id 10 
     name rtoes
     direction -1.53533e-011 -4.22004e-011 1   
     length 1.05493   
     axis -90 -7.62852e-016 -20   XYZ
    dof rx
    limits (-90.0 20.0)
  end
  begin
     id 11 
     name lowerback
     direction -0.0115208 0.997969 -0.0626515   
     length 2.03153   
     axis 0 0 0   XYZ
    dof rx ry rz
    limits (-20.0 45.0)
           (-30.0 30.0)
           (-30.0 30.0)
  end
  begin
     id 12 
     name upperback
     direction -0.00423475 0.999974 -0.00583614   
     length 2.03619   
     axis 0 0 0   XYZ
    dof rx ry rz
    limits (-20.0 45.0)
           (-30.0 30.0)
           (-30.0 30.0)
  end
  begin
     id 13 
     name thorax
     direction 0.00289429 0.999728 0.0231573   
     length 2.03921   
     axis 0 0 0   XYZ
    dof rx ry rz
    limits (-20.0 45.0)
           (-30.0 30.0)
           (-30.0 30.0)
  end
  begin
     id 14 
     name lowerneck
     direction 0.0188995 0.987777 0.154721   
     length 1.78836   
     axis 0 0 0   XYZ
    dof rx ry rz
    limits (-20.0 45.0)
           (-30.0 30.0)
           (-30.0 30.0)
  end
  begin
     id 15 
     name upperneck
     direction -0.00612612 0.992995 -0.118   
     length 1.81789   
     axis 0 0 0   XYZ
    dof rx ry rz
    limits (-20.0 45.0)
           (-30.0 30.0)
           (-30.0 30.0)
  end
  begin
     id 16
     name head
     direction -0.00420226 0.998397 -0.0564482  
     length 1.82234  
     axis 0 0 0   XYZ
    dof rx ry rz
    limits (-20.0 45.0)
           (-30.0 30.0)
           (-30.0 30.0)
  end
  begin
     id 17 
     name lclavicle
     direction 0.916488 0.396539 0.0529676  
     length 3.51732  
     axis 0 0 0   XYZ
    dof ry rz
    limits (-20.0 10.0)
           (0.0 20.0)
  end
  begin
     id 18 
     name lhumerus
     direction 1 -4.4896e-011 8.36962e-028   
     length 5.45077   
     axis 180 -30 -90   XYZ
    dof rx ry rz
    limits (-60.0 90.0)
           (-90.0 90.0)
           (-90.0 90.0)
  end
  begin
     id 19
     name lradius
     direction 1 -4.48962e-011 3.01407e-027   
     length 3.05488   
     axis 180 -30 -90   XYZ
    dof rx
    limits (-10.0 170.0)
  end
  begin
     id 20
     name lwrist
     direction 1 -4.49002e-011 4.72961e-027   
     length 1.52744   
     axis -2.72261e-015 90 90   XYZ
    dof ry
    limits (-180.0 0.0)
 end
  begin
     id 21 
     name lhand
     direction 1 -4.4899e-011 9.45681e-027   
     length 0.638818   
     axis -6.0311e-015 90 90   XYZ
    dof rx rz
    limits (-90.0 90.0)
           (-45.0 45.0)
  end
  begin
     id 22 
     name lfingers
     direction 1 -4.48871e-011 1.88632e-026   
     length 0.515032   
     axis -1.20625e-014 90 90   XYZ
    dof rx
    limits (0.0 90.0)
  end
  begin
     id 23
     name lthumb
     direction 0.707107 -6.34964e-011 0.707107   
     length 0.739485   
     axis -90 45 6.32835e-014   XYZ
    dof rx rz
    limits (-45.0 45.0)
           (-45.0 45.0)
  end
  begin
     id 24 
     name rclavicle
     direction -0.949427 0.303202 0.0815894   
     length 3.76167  
     axis 0 0 0   XYZ 
    dof ry rz
    limits (-10.0 20.0)
           (-20.0 0.0)
  end
  begin
     id 25 
     name rhumerus
     direction -1 -4.48971e-011 -6.43969e-018  
     length 4.88702   
     axis 180 30 90   XYZ
    dof rx ry rz
    limits (-90.0 60.0)
           (-90.0 90.0)
           (-90.0 90.0)
  end
  begin
     id 26 
     name rradius
     direction -1 -4.48987e-011 5.46662e-027   
     length 3.22603   
     axis 180 30 90   XYZ
    dof rx
    limits (-10.0 170.0)
  end
  begin
     id 27 
     name rwrist
     direction -1 -4.48956e-011 4.72476e-027   
     length 1.61302   
     axis -2.72261e-015 -90 -90   XYZ
    dof ry
    limits (-180.0 0.0)
  end
  begin
     id 28
     name rhand
     direction -1 -4.4889e-011 9.43571e-027   
     length 0.716293   
     axis -6.0311e-015 -90 -90   XYZ
    dof rx rz
    limits (-90.0 90.0)
           (-45.0 45.0)
  end
  begin
     id 29
     name rfingers
     direction -1 -4.48887e-011 1.88701e-026   
     length 0.577494   
     axis -1.20625e-014 -90 -90   XYZ
    dof rx
    limits (0.0 90.0)
  end
  begin
     id 30
     name rthumb
     direction -0.707107 -6.34825e-011 0.707107   
     length 0.829169   
     axis -90 -45 -6.32835e-014   XYZ
    dof rx rz
    limits (-45.0 45.0)
           (-45.0 45.0)
  end
:hierarchy
  begin
    root lhipjoint rhipjoint lowerback
    lhipjoint lfemur
    lfemur ltibia
    ltibia lfoot
    lfoot ltoes
    rhipjoint rfemur
    rfemur rtibia
    rtibia rfoot
    rfoot rtoes
    lowerback upperback
    upperback thorax
    thorax lowerneck lclavicle rclavicle
    lowerneck upperneck
    upperneck head
    lclavicle lhumerus
    lhumerus lradius
    lradius lwrist
    lwrist lhand lthumb
    lhand lfingers
    rclavicle rhumerus
    rhumerus rradius
    rradius rwrist
    rwrist rhand rthumb
    rhand rfingers
  end

#!OML:ASF F:\VICON\USERDATA\INSTALL\rory3\rory3.ASF
:FULLY-SPECIFIED
:DEGREES
206
root -0.959554 16.8373 0.554057 162.659 87.1355 90.0007
lowerback 35.916 -1.50498 -1.9013
upperback 16.2401 -0.639482 -0.49698
thorax -0.137864 0.11229 0.671911
lowerneck -22.4721 -0.220349 2.56166
upperneck -1.65954 -0.529939 -2.75772
head 2.93962 -0.294549 -1.30853
rclavicle 3.43276e-014 3.81418e-015
rhumerus 94.4697 -7.01881 -102.46
rradius 31.938
rwrist -180.404
rhand -35.3133 -7.37223
rfingers 7.12502
rthumb -8.44716 -37.1833
lclavicle 3.43276e-014 3.81418e-015
lhumerus 87.9786 12.6286 100.382
lradius 32.2366
lwrist 202.233
lhand -38.1276 -32.7663
lfingers 7.12502
lthumb -11.1623 -3.08325
rfemur -102.867 -7.9478 27.2997
rtibia 34.9877
rfoot -3.23064 9.38325
rtoes 0.775887
lfemur -105.886 6.22552 -60.7656
ltibia 35.0759
lfoot 7.32864 -26.7952
ltoes 12.6704
207
root -0.953598 16.8286 0.550779 163.841 87.2515 91.0005
lowerback 36.0234 -1.456 -1.88579
upperback 16.2599 -0.575309 -0.454495
thorax -0.153003 0.139292 0.68834
lowerneck -22.4001 -0.243691 2.59342
upperneck -1.7593 -0.568319 -2.78461
head 2.89756 -0.314559 -1.32467
rclavicle -3.29858e-014 -1.06101e-014
rhumerus 95.0526 -6.55298 -103.688
rradius 31.5565
rwrist -179.345
rhand -35.6872 -7.89465
rfingers 7.12502
rthumb -8.80796 -37.6908
lclavicle -3.29858e-014 -1.06101e-014
lhumerus 88.2411 12.4945 100.515
lradius 32.1939
lwrist 202.346
lhand -37.8698 -32.6031
lfingers 7.12502
lthumb -10.9137 -2.90672
rfemur -103.041 -7.85202 27.4602
rtibia 35.0091
rfoot -3.20969 9.5376
rtoes 0.565015
lfemur -106.204 6.20355 -60.7628
ltibia 35.2627
lfoot 7.38928 -26.8631
ltoes 12.8643
208
root -0.949191 16.8201 0.54845 165.384 87.3758 92.3898
lowerback 36.1487 -1.40617 -1.86462
upperback 16.2775 -0.508839 -0.42093
thorax -0.176698 0.16846 0.69166
lowerneck -22.3346 -0.193698 2.81944
upperneck -1.79993 -0.552004 -2.9591
head 2.87582 -0.316315 -1.41345
rclavicle -5.86415e-015 -4.5472e-015
rhumerus 95.5473 -6.14721 -104.682
rradius 31.3269
rwrist -178.302
rhand -35.6116 -8.68845
rfingers 7.12502
rthumb -8.73505 -38.4877
lclavicle -5.86415e-015 -4.5472e-015
lhumerus 88.4195 12.4209 100.272
lradius 32.097
lwrist 202.994
lhand -37.4703 -32.3085
lfingers 7.12502
lthumb -10.5283 -2.59213
rfemur -103.202 -7.75354 27.714
rtibia 35.0162
rfoot -3.17033 9.77133
rtoes 0.212639
lfemur -106.502 6.19505 -60.6896
ltibia 35.4668
lfoot 7.30722 -26.8669
ltoes 12.7833
209
root -0.944286 16.8076 0.546101 167.202 87.4849 94.035
lowerback 36.2213 -1.38541 -1.84405
upperback 16.3117 -0.473889 -0.380902
thorax -0.163997 0.182026 0.711879
lowerneck -22.1813 -0.145674 2.93888
upperneck -1.98012 -0.50955 -3.0986
head 2.79985 -0.300161 -1.47125
rclavicle -6.18096e-015 -3.81418e-014
rhumerus 95.9062 -5.92534 -104.941
rradius 31.3621
rwrist -177.78
rhand -35.5167 -8.71836
rfingers 7.12502
rthumb -8.64339 -38.5214
lclavicle -6.18096e-015 -3.81418e-014
lhumerus 88.7522 12.3932 100.289
lradius 31.9991
lwrist 202.992
lhand -37.7341 -32.4553
lfingers 7.12502
lthumb -10.7828 -2.75209
rfemur -103.388 -7.67987 27.9709
rtibia 35.0227
rfoot -2.98053 10.0499
rtoes 1.30871
lfemur -106.818 6.15918 -60.5978
ltibia 35.6829
lfoot 7.26624 -26.8106
ltoes 13.1271
210
root -0.93975 16.7956 0.544347 168.953 87.5813 95.6002
lowerback 36.2904 -1.37468 -1.81498
upperback 16.3378 -0.450744 -0.367392
thorax -0.159143 0.19203 0.703595
lowerneck -22.0349 -0.10417 3.03983
upperneck -2.16975 -0.473504 -3.18502
head 2.72181 -0.2841 -1.51008
rclavicle -8.61141e-014 -4.20235e-014
rhumerus 96.2903 -5.68284 -105.315
rradius 31.339
rwrist -177.343
rhand -35.5812 -8.25674
rfingers 7.12502
rthumb -8.70569 -38.0572
lclavicle -8.61141e-014 -4.20235e-014
lhumerus 89.1279 12.3455 100.407
lradius 31.9016
lwrist 202.577
lhand -38.3085 -33.1104
lfingers 7.12502
lthumb -11.3368 -3.43685
rfemur -103.574 -7.5959 28.0771
rtibia 35.0587
rfoot -2.88188 10.228
rtoes 2.02017
lfemur -107.162 6.11218 -60.6504
ltibia 35.8957
lfoot 7.32025 -26.9097
ltoes 13.5369
